<svg width="494" height="259" viewBox="0 0 494 259" fill="none" xmlns="http://www.w3.org/2000/svg">
<g clip-path="url(#clip0_48_353)">
<path d="M65.1059 241.266H117.284V245.306H65.1059V241.266Z" fill="white" stroke="#262626" stroke-width="0.577193" stroke-miterlimit="10"/>
<path d="M96.736 221.18C96.736 221.18 90.0406 227.067 81.3827 224.412C72.7248 221.757 45.9431 213.099 45.9431 213.099L54.2547 205.711C54.2547 205.711 82.5371 205.711 96.0434 204.326L102.97 210.79L96.736 221.18Z" fill="white" stroke="#262626" stroke-width="0.577193" stroke-miterlimit="10"/>
<path d="M62.3357 142.797C62.3357 142.797 55.1785 153.302 66.1451 167.732C77.1118 182.162 93.2732 201.786 93.2732 201.786C93.2732 201.786 101.354 214.485 96.7364 221.065L128.713 190.704L62.3357 142.797Z" fill="white" stroke="#262626" stroke-width="0.577193" stroke-miterlimit="10"/>
<path d="M179.391 135.41L245.652 210.56C245.652 210.56 266.431 234.802 258.351 248.655C250.27 262.507 232.031 259.275 219.794 253.965C207.558 248.655 62.3359 142.913 62.3359 142.913L181.815 40.6344L238.726 83.4621L179.391 135.41Z" fill="white" stroke="#262626" stroke-width="0.577193" stroke-miterlimit="10"/>
<path d="M145.566 107.936L119.939 92.6978L82.5369 125.598L106.894 144.53L145.566 107.936Z" fill="#FF6B00" stroke="#262626" stroke-width="0.577193" stroke-miterlimit="10"/>
<path d="M161.267 107.936L97.5445 64.5308L58.8726 98.5852L122.595 144.53L161.267 107.936Z" fill="white" stroke="#262626" stroke-width="0.577193" stroke-miterlimit="10"/>
<path d="M113.359 87.7333L99.2758 99.6235L137.14 130.561L161.959 107.127L113.359 87.7333Z" fill="#262626"/>
<path d="M233.3 240.575L125.596 153.88L149.838 129.754L233.3 240.575Z" fill="#262626"/>
<path d="M271.856 203.864L138.64 48.5992L99.8529 82.6536L233.3 240.574L271.856 203.864Z" fill="white" stroke="#262626" stroke-width="0.577193" stroke-miterlimit="10"/>
<path d="M181.815 86.2315L265.508 18.2382C267.24 36.1311 274.859 54.255 274.859 54.255L356.358 131.137L328.307 155.495L330.154 156.995C343.545 170.386 330.154 186.548 330.154 186.548L255.003 252.579C264.469 239.534 253.041 221.064 253.041 221.064L179.16 135.293C157.458 109.088 181.815 86.2315 181.815 86.2315Z" fill="white" stroke="#262626" stroke-width="0.577193" stroke-miterlimit="10"/>
<path d="M318.724 196.707C318.724 196.707 325.651 182.739 314.453 169.463C303.371 156.188 202.362 76.1891 202.362 76.1891L215.984 62.6827L330.384 157.112C330.384 157.112 341.581 168.194 333.27 182.046L330.384 186.664L318.724 196.707Z" fill="#FF6B00" stroke="#262626" stroke-width="0.577193" stroke-miterlimit="10"/>
<path d="M436.357 166.462C436.357 166.462 454.481 188.973 443.745 208.828C433.009 228.684 405.997 219.102 402.995 216.563C399.878 214.138 248.769 90.1574 248.769 90.1574C248.769 90.1574 238.149 79.6525 218.524 77.4592C195.898 74.9195 181.815 86.3479 181.815 86.3479L265.508 18.3546C265.508 18.3546 291.251 4.15564 322.881 24.1265C354.511 44.0974 447.093 118.094 447.093 118.094L425.737 148.569C425.737 148.569 430.47 156.765 436.357 166.462Z" fill="white" stroke="#262626" stroke-width="0.577193" stroke-miterlimit="10"/>
<mask id="mask0_48_353" style="mask-type:alpha" maskUnits="userSpaceOnUse" x="181" y="12" width="267" height="210">
<path d="M436.324 166.19C436.324 166.19 454.448 188.701 443.712 208.556C432.976 228.412 405.963 218.83 402.962 216.291C399.845 213.866 248.736 89.8853 248.736 89.8853C248.736 89.8853 238.116 79.3804 218.491 77.1871C195.865 74.6474 181.782 86.0758 181.782 86.0758L265.475 18.0825C265.475 18.0825 291.217 3.88355 322.848 23.8544C354.478 43.8253 447.06 117.821 447.06 117.821L425.703 148.297C425.703 148.297 430.436 156.493 436.324 166.19Z" fill="white" stroke="#262626" stroke-width="0.577193" stroke-miterlimit="10"/>
</mask>
<g mask="url(#mask0_48_353)">
<g clip-path="url(#clip1_48_353)">
<path d="M332.408 70.3743L302.534 72.9964L297.301 103.806L266.337 107.084L271.571 75.837L239.517 78.6777L244.75 46.3381L276.804 44.153L307.986 41.9679L313.219 10.7208L343.093 9.19122L348.544 -21.8373L377.327 -22.7114L371.876 7.66165L366.643 37.8161L337.859 39.7827L332.408 70.3743Z" fill="#666666"/>
<path d="M327.176 100.528L322.161 130.683L292.287 134.398L297.302 103.806L327.176 100.528Z" fill="#262626"/>
<path d="M361.41 67.7521L356.177 97.4695L327.176 100.529L332.409 70.3742L361.41 67.7521Z" fill="#262626"/>
<path d="M383.87 94.6289L378.636 123.691L350.943 127.187L356.177 97.4695L383.87 94.6289Z" fill="#262626"/>
<path d="M389.103 65.3481L361.41 67.7517L366.643 37.8157L394.555 35.8491L421.375 33.8825L416.142 62.9445L410.691 91.7879L383.87 94.6285L389.103 65.3481Z" fill="#FF6B00"/>
<path d="M234.284 110.58L266.338 107.084L261.323 138.331L292.286 134.398L287.053 164.771L256.089 169.141L224.035 173.73L229.269 142.264L195.906 146.416L161.235 150.786L166.251 117.791L200.921 114.076L206.155 81.5182L239.517 78.6776L234.284 110.58Z" fill="#FF6B00"/>
<path d="M171.265 84.577L176.498 51.1449L211.169 48.7412L206.153 81.5179L171.265 84.577Z" fill="#262626"/>
<path d="M185.876 210.221L190.891 178.537L224.036 173.73L219.02 204.977L185.876 210.221Z" fill="#262626"/>
<path d="M322.16 130.684L350.943 127.188L345.71 156.469L340.477 185.531L311.694 190.119L282.038 194.927L287.053 164.772L316.927 160.62L322.16 130.684Z" fill="#262626"/>
<path d="M400.442 148.602L373.403 152.535L378.637 123.691L405.457 120.195L400.442 148.602Z" fill="#262626"/>
<path d="M436.856 88.9478L431.623 117.136L405.456 120.195L410.689 91.7884L436.856 88.9478Z" fill="#262626"/>
<path d="M211.17 48.7426L216.403 15.7474L249.984 13.9993L244.75 46.3389L211.17 48.7426Z" fill="#262626"/>
</g>
</g>
<path d="M426.313 162.075L406.689 182.046L439.589 214.023C439.589 213.907 457.482 192.089 426.313 162.075Z" fill="#262626"/>
<path d="M416.155 154.111L466.948 93.8519C466.948 93.8519 486.457 114.746 490.844 127.445C496.731 144.529 488.535 154.804 488.535 154.804L439.589 213.908C439.589 213.908 448.016 207.559 438.665 182.971C429.777 159.537 416.155 154.111 416.155 154.111Z" fill="white" stroke="#262626" stroke-width="0.577193" stroke-miterlimit="10"/>
<path d="M254.772 73.3028C254.772 73.3028 226.49 57.4877 205.134 67.5309L250.04 30.8214L284.556 37.8632L254.772 73.3028Z" fill="#262626"/>
<path d="M329.344 53.4479L260.196 0.34613L214.482 40.6342L283.745 96.7374L329.344 53.4479Z" fill="white" stroke="#262626" stroke-width="0.577193" stroke-miterlimit="10"/>
<path d="M65.1072 205.712L78.498 245.307H14.8914L0.346085 205.712H65.1072Z" fill="white" stroke="#262626" stroke-width="0.577193" stroke-miterlimit="10"/>
<path d="M113.013 205.712C113.013 205.712 115.437 202.941 108.973 190.589C102.508 178.122 84.6153 161.499 84.6153 161.499C84.6153 161.499 77.3427 154.226 76.0729 152.956L128.713 190.935L113.013 205.712Z" fill="#262626"/>
<circle cx="8.79177" cy="8.79177" r="8.51703" transform="matrix(-1 0 0 1 47.8193 217.596)" fill="white" stroke="#262626" stroke-width="0.549486"/>
</g>
<defs>
<clipPath id="clip0_48_353">
<rect width="493.269" height="258.698" fill="white" transform="matrix(-1 0 0 1 493.27 0)"/>
</clipPath>
<clipPath id="clip1_48_353">
<rect width="275.621" height="232.933" fill="white" transform="matrix(1 0 0 -1 161.233 210.221)"/>
</clipPath>
</defs>
</svg>
