<svg width="1173" height="1010" viewBox="0 0 1173 1010" fill="none" xmlns="http://www.w3.org/2000/svg">
<g clip-path="url(#clip0_34_1280)">
<path d="M766.504 215.196L821.439 304.616C821.439 304.616 788.332 320.641 741.498 356.36C701.709 386.839 651.326 444.362 651.326 444.362L558 283.674C558 283.674 599.683 234.316 661.619 192.767C718.888 154.155 730.804 156.605 730.804 156.605L766.504 215.196Z" fill="white" stroke="#262626" stroke-width="1.22338" stroke-miterlimit="10"/>
<path d="M577.835 262.287L660.117 406.86C660.117 406.86 687.606 376.503 717.963 350.556C770.345 306.177 810.621 287.343 810.621 287.343L730.479 156.421C730.804 156.605 657.587 175.256 577.835 262.287Z" fill="#262626"/>
<path d="M989.606 239.922C989.606 239.922 945.76 206.326 854.904 239.455C764.047 272.583 665.378 361.57 665.378 361.57L574.1 203.328C574.1 203.328 698.652 98.948 782.371 82.591C850.212 69.2655 885.727 87.6376 885.727 87.6376L989.606 239.922Z" fill="white" stroke="#262626" stroke-width="1.22338" stroke-miterlimit="10"/>
<path d="M969.056 169.736L859.587 401.702L553.478 363.275" stroke="#FF6B00" stroke-width="1.22338" stroke-miterlimit="10"/>
<path d="M552.459 490.12L719.936 443.699L742.994 526.887L575.517 573.309L552.459 490.12Z" fill="white" stroke="#FF6B00" stroke-width="1.22338" stroke-miterlimit="10"/>
<path d="M467.644 832.776L448.554 838.067C443.565 835.889 438.392 834.036 433.332 831.603C432.682 831.235 432.103 831.122 431.453 830.754L425.388 808.876L458.477 799.704L467.644 832.776Z" fill="white" stroke="#FF6B00" stroke-width="1.22338" stroke-miterlimit="10"/>
<path d="M509.898 856.677L542.986 847.505L533.819 814.433L500.731 823.605L491.564 790.533L524.652 781.362L515.485 748.29L482.397 757.461L449.309 766.633L440.142 733.561L473.23 724.389L464.063 691.317L430.975 700.489L440.142 733.561L407.054 742.732L373.966 751.904L364.799 718.832L331.711 728.003L298.623 737.175L307.79 770.247L316.957 803.318L283.869 812.49L274.702 779.418L259.939 783.51L244.497 560.69C244.497 560.69 266.418 528.041 325.316 525.96C413.537 522.875 456.836 570.319 529.845 586.517C575.729 596.81 585.908 576.182 585.908 576.182L615.679 767.636C615.679 767.636 692.471 751.008 736.319 802.409C762.34 833.001 723.228 864.936 682.759 876.153C640.508 887.864 590.536 880.622 510.533 858.966L509.898 856.677V856.677Z" fill="white" stroke="#FF6B00" stroke-width="1.22338" stroke-miterlimit="10"/>
<path d="M509.899 856.677L505.827 857.805C494.533 854.635 483.098 850.956 471.522 846.768L467.644 832.776L500.732 823.605L509.899 856.677Z" fill="white" stroke="#FF6B00" stroke-width="1.22338" stroke-miterlimit="10"/>
<path d="M425.389 808.876L393.064 817.835C392.81 817.906 392.485 817.722 392.23 817.793L383.134 784.975L416.222 775.804L425.389 808.876Z" fill="white" stroke="#FF6B00" stroke-width="1.22338" stroke-miterlimit="10"/>
<path d="M355.405 813.481C342.525 813.49 331.228 815.251 320.977 817.819L316.957 803.318L350.045 794.147L355.405 813.481Z" fill="white" stroke="#FF6B00" stroke-width="1.22338" stroke-miterlimit="10"/>
<path d="M267.584 852.616L265.039 853.322L262.49 818.416L283.87 812.49L289.229 831.824C278.324 838.956 270.967 847.022 267.584 852.616Z" fill="white" stroke="#FF6B00" stroke-width="1.22338" stroke-miterlimit="10"/>
<path d="M340.878 761.075L373.966 751.903L383.133 784.975L350.045 794.147L340.878 761.075Z" fill="white" stroke="#FF6B00" stroke-width="1.22338" stroke-miterlimit="10"/>
<path d="M557.213 589.34L587.678 820.872C587.678 820.872 643.138 781.666 717.31 793.158L675.995 570.935C675.995 570.935 640.769 543.717 586.232 576.366C586.232 576.366 574.984 590.168 557.213 589.34Z" fill="#262626"/>
<path d="M586.233 576.365L579.201 521.334C579.201 521.334 661.351 506.234 701.651 556.701L743.663 814.07C743.663 814.07 739.334 797.463 689.679 782.463C659.784 773.491 618.763 785.683 618.763 785.683L586.233 576.365Z" fill="white" stroke="#FF6B00" stroke-width="1.22338" stroke-miterlimit="10"/>
<path d="M383.94 530.804C383.94 530.804 351.929 514.2 311.402 528.173C270.874 542.146 173.066 632.264 173.066 632.264L169.993 807.071C169.993 807.071 289.368 705.77 328.69 697.336C366.16 689.141 398.1 705.491 398.1 705.491L383.94 530.804Z" fill="#262626"/>
<path d="M352.725 487.407C352.725 487.407 322.505 478.251 280.187 484.776C242.082 490.681 141.851 588.867 141.851 588.867L138.778 763.674C138.778 763.674 259.352 666.697 297.476 653.939C335.599 641.18 366.184 654.618 366.184 654.618L352.725 487.407Z" fill="white" stroke="#FF6B00" stroke-width="1.22338" stroke-miterlimit="10"/>
<path d="M252.257 497.722L252.826 575.913L176.654 637.296L177.091 555.814L232.711 510.263L252.257 497.722Z" fill="#262626"/>
<path d="M339.867 832.581L425.387 808.876L440.406 863.063L354.886 886.768L339.867 832.581Z" fill="white" stroke="#FF6B00" stroke-width="1.22338" stroke-miterlimit="10"/>
<path d="M418.5 840.671L418.123 839.314L405.657 836.778L406.259 838.949L415.758 840.664L415.652 840.547L415.746 840.886L415.776 840.731L408.516 847.092L409.117 849.263L418.5 840.671ZM393.844 834.499L405.206 853.745L407.038 853.237L395.676 833.991L393.844 834.499ZM385.502 856.393L386.451 854.742L379.583 850.855L393.51 846.995L392.993 845.129L379.066 848.989L382.957 842.138L381.289 841.194L375.796 850.9L385.502 856.393ZM360.529 856.739L372.996 859.275L372.394 857.104L362.895 855.389L363 855.506L362.906 855.167L362.876 855.321L370.137 848.961L369.535 846.79L360.153 855.382L360.529 856.739Z" fill="black"/>
<path d="M232.595 493.036L232.909 571.298L156.737 632.681L157.198 557.218L232.595 493.036Z" fill="white" stroke="#262626" stroke-width="1.22338" stroke-miterlimit="10"/>
<path d="M341.95 428.756L335.03 355.339L411.273 294.21L417.347 364.574L341.95 428.756Z" fill="white" stroke="#262626" stroke-width="1.22338" stroke-miterlimit="10"/>
<path d="M376.2 374.335C371.421 375.66 366.473 372.861 365.149 368.084C363.825 363.307 366.626 358.361 371.405 357.036C376.185 355.711 381.132 358.51 382.457 363.287C383.781 368.064 380.98 373.011 376.2 374.335Z" fill="white" stroke="#262626" stroke-width="1.22338" stroke-miterlimit="10"/>
<path d="M196.552 585.484L196.548 613.154L169.671 634.849L169.958 608.197L196.552 585.484Z" fill="white" stroke="#262626" stroke-width="1.22338" stroke-miterlimit="10"/>
<path d="M294.03 626.677L294.255 670.994L252.573 697.614L252.772 654.824L294.03 626.677Z" fill="white" stroke="#262626" stroke-width="1.22338" stroke-miterlimit="10"/>
<path d="M433.972 656.922C415.558 662.026 396.494 651.243 391.392 632.838C386.29 614.432 397.083 595.374 415.497 590.269C433.912 585.165 452.976 595.948 458.077 614.354C463.179 632.759 452.387 651.818 433.972 656.922Z" fill="#262626"/>
<path d="M425.204 642.094C406.789 647.198 387.725 636.415 382.624 618.01C377.522 599.604 388.314 580.545 406.729 575.441C425.143 570.337 444.207 581.12 449.309 599.526C454.411 617.931 443.618 636.99 425.204 642.094Z" fill="white" stroke="#262626" stroke-width="1.22338" stroke-miterlimit="10"/>
<path d="M415.964 608.768L548.818 374.155" stroke="#FF6B00" stroke-width="1.22338" stroke-miterlimit="10"/>
<path d="M562.716 396.601C544.302 401.705 525.238 390.922 520.136 372.517C515.035 354.111 525.827 335.053 544.241 329.948C562.656 324.844 581.72 335.627 586.821 354.033C591.923 372.438 581.131 391.497 562.716 396.601Z" fill="white" stroke="#FF6B00" stroke-width="1.22338" stroke-miterlimit="10"/>
<path d="M540.748 331.191L546.369 317.853L578.802 358.722L554.227 405.529L548.196 397.613" stroke="#FF6B00" stroke-width="1.22338" stroke-miterlimit="10"/>
<path d="M711.635 478.809L711.154 477.074L695.217 473.833L695.986 476.608L708.13 478.8L707.995 478.651L708.115 479.084L708.154 478.887L698.872 487.017L699.641 489.793L711.635 478.809ZM682.916 495.176L683.577 497.562L697.456 493.715L696.795 491.329L682.916 495.176ZM669.11 499.003L669.772 501.388L683.65 497.541L682.989 495.156L669.11 499.003ZM655.305 502.83L655.966 505.215L669.845 501.368L669.184 498.983L655.305 502.83ZM638.699 482.4L653.224 507.002L655.567 506.353L641.041 481.75L638.699 482.4ZM630.616 509.673L631.277 512.058L645.156 508.211L644.495 505.826L630.616 509.673ZM611.437 506.582L627.374 509.824L626.605 507.049L614.462 504.857L614.596 505.006L614.476 504.573L614.438 504.77L623.72 496.64L622.95 493.864L610.956 504.848L611.437 506.582Z" fill="black"/>
<path d="M861.8 410.677C856.037 412.275 850.07 408.9 848.473 403.139C846.877 397.379 850.254 391.414 856.018 389.816C861.781 388.219 867.748 391.594 869.344 397.354C870.941 403.115 867.563 409.08 861.8 410.677Z" fill="white" stroke="#F55800" stroke-width="1.22338" stroke-miterlimit="10"/>
<path d="M978.856 205.098C955.943 211.449 932.223 198.032 925.875 175.13C919.527 152.228 932.955 128.514 955.868 122.163C978.781 115.812 1002.5 129.229 1008.85 152.131C1015.2 175.033 1001.77 198.747 978.856 205.098Z" fill="white" stroke="#F55800" stroke-width="1.22338" stroke-miterlimit="10"/>
<path d="M418.393 613.574C415.02 614.509 411.527 612.533 410.592 609.161C409.658 605.789 411.635 602.298 415.009 601.363C418.382 600.427 421.875 602.403 422.81 605.775C423.744 609.147 421.767 612.639 418.393 613.574Z" fill="white" stroke="#FF6B00" stroke-width="1.22338" stroke-miterlimit="10"/>
<path d="M931.894 139.493C931.894 139.493 937.559 165.865 962.262 179.837C986.965 193.81 1004.44 185.678 1004.44 185.678" fill="white"/>
<path d="M931.894 139.493C931.894 139.493 937.559 165.865 962.262 179.837C986.965 193.81 1004.44 185.678 1004.44 185.678" stroke="#F55800" stroke-width="1.22338" stroke-miterlimit="10"/>
<path d="M661.841 259.821L695.865 247.103L691.776 209.61L726.861 195.776L731.091 233.778L767.589 220.1L771.917 259.444L735.207 272.359L699.515 284.992L703.49 323.064L669.114 334.51L672.764 372.399L639.449 382.729L636.01 345.603L632.388 308.803L665.35 297.201L661.841 259.821Z" fill="#666666"/>
<path d="M658.219 223.021L654.342 186.291L688.013 172.301L691.776 209.61L658.219 223.021Z" fill="#262626"/>
<path d="M628.836 272.257L625.354 235.966L658.219 223.021L661.841 259.822L628.836 272.257Z" fill="#262626"/>
<path d="M593.947 248.233L590.677 212.705L621.873 199.675L625.355 235.966L593.947 248.233Z" fill="#262626"/>
<path d="M597.288 284.016L628.836 272.257L632.389 308.803L600.444 320.123L569.772 331.09L566.502 295.562L563.303 260.288L593.947 248.233L597.288 284.016Z" fill="#FF6B00"/>
<path d="M763.403 181.265L726.861 195.777L722.886 157.704L688.013 172.302L684.32 135.247L719.052 120.141L754.986 104.428L759.032 142.754L796.634 127.127L835.693 110.821L840.487 150.858L801.216 166.4L805.615 205.999L767.589 220.1L763.403 181.265Z" fill="#F55800"/>
<path d="M845.351 191.149L850.031 231.766L810.337 245.782L805.614 205.999L845.351 191.149Z" fill="#262626"/>
<path d="M787.752 49.5964L792.123 88.107L754.986 104.427L750.757 66.4256L787.752 49.5964Z" fill="#262626"/>
<path d="M654.342 186.291L621.874 199.674L618.533 163.892L615.263 128.363L647.125 113.779L680.443 98.5168L684.32 135.247L650.79 149.746L654.342 186.291Z" fill="#262626"/>
<path d="M557.186 190.758L587.478 177.431L590.677 212.705L560.244 225.523L557.186 190.758Z" fill="#262626"/>
<path d="M533.93 271.991L530.942 237.48L560.243 225.523L563.302 260.288L533.93 271.991Z" fill="#262626"/>
<path d="M810.338 245.782L814.877 285.889L776.245 298.789L771.917 259.445L810.338 245.782Z" fill="#262626"/>
<path d="M373.801 365.686L936.759 531.803" stroke="#FF6B00" stroke-width="1.22338" stroke-miterlimit="10"/>
</g>
<defs>
<clipPath id="clip0_34_1280">
<rect width="1003.13" height="769.271" fill="white" transform="matrix(-0.963665 0.267112 0.267112 0.963665 966.682 0)"/>
</clipPath>
</defs>
</svg>
